<svg xmlns="http://www.w3.org/2000/svg" width="209" height="30" viewBox="0 0 209 30" fill="none">
    <path
        d="M137.286 9.5926C138.556 10.893 139.194 12.6512 139.194 14.94V25.7441H133.888V15.7151C133.888 13.6396 132.618 12.5108 130.815 12.5108C128.797 12.5108 127.526 13.7436 127.526 16.1364V25.7441H122.221V8.14651H127.526V9.80067C128.588 8.35978 130.287 7.65234 132.581 7.65234C134.458 7.65234 136.047 8.28696 137.286 9.5874V9.5926Z"
        fill="#F4F4F4" />
    <path
        d="M154.039 8.39357L159.261 8.39355V25.9859H153.955V24.3318C152.894 25.7727 151.195 26.4801 148.9 26.4801C147.029 26.4801 145.435 25.8455 144.164 24.545C142.925 23.2446 142.293 21.4864 142.293 19.1976V8.39355H147.599V18.4226C147.599 20.4981 148.869 21.6269 150.672 21.6269C152.69 21.6269 153.96 20.394 153.96 18.0012V8.39355L154.039 8.39357Z"
        fill="#F4F4F4" />
    <path
        d="M168.14 11.3846C168.814 9.13223 171.041 7.89941 173.446 7.89941V13.8814C172.139 13.6682 170.936 13.8814 169.802 14.5525C168.704 15.1871 168.14 16.3107 168.14 17.8972V25.8507H162.834V8.24793H168.14V11.3794V11.3846Z"
        fill="#F4F4F4" />
    <path
        d="M183.327 15.0831C185.768 15.6084 188.983 16.8777 188.952 20.7114C188.952 22.61 188.246 24.0561 186.829 25.0392C185.413 25.9912 183.682 26.4801 181.597 26.4801C177.885 26.4801 175.34 25.0704 173.996 22.2927L178.591 19.6866C179.051 21.0599 180.076 21.7621 181.597 21.7621C182.872 21.7621 183.505 21.4084 183.505 20.6698C183.505 19.9311 182.125 19.5462 180.431 19.1196C177.99 18.4486 174.806 17.2574 174.806 13.6682C174.806 11.8372 175.481 10.4327 176.788 9.41313C178.131 8.39358 179.793 7.89941 181.738 7.89941C184.676 7.89941 187.185 9.23627 188.633 11.6655L184.106 14.0947C183.541 13.0752 182.762 12.5446 181.738 12.5446C180.713 12.5446 180.253 12.8619 180.253 13.5277C180.253 14.23 181.633 14.6201 183.327 15.0779V15.0831Z"
        fill="#F4F4F4" />
    <path
        d="M195.927 19.3071C196.529 20.9612 197.94 21.7623 200.167 21.7623C201.615 21.7623 202.749 21.3045 203.559 20.4254L207.804 22.8547C206.074 25.2839 203.491 26.4803 200.094 26.4803C197.124 26.4803 194.756 25.6012 192.953 23.843C191.186 22.0848 190.303 19.8689 190.303 17.1951C190.303 14.5214 191.186 12.3419 192.922 10.5785C194.689 8.78388 196.952 7.90479 199.712 7.90479C202.294 7.90479 204.417 8.78388 206.11 10.5785C207.841 12.3367 208.693 14.5526 208.693 17.1951C208.693 17.9338 208.625 18.636 208.478 19.3071H195.927ZM203.418 15.3589C202.89 13.4915 201.651 12.5812 199.67 12.5812C197.689 12.5812 196.346 13.4967 195.818 15.3589H203.418Z"
        fill="#F4F4F4" />
    <path
        d="M39.5048 23.5968C37.7851 21.8585 36.9141 19.7191 36.9141 17.1562C36.9141 14.5933 37.7627 12.4538 39.5048 10.7155C41.2468 8.97723 43.4131 8.13037 46.0038 8.13037C49.3092 8.13037 52.2349 9.86868 53.7313 12.5207L49.2422 15.1059C48.6169 13.8579 47.5225 13.1893 45.9145 13.1893C43.6812 13.1893 42.0285 14.8162 42.0285 17.1785C42.0285 19.5408 43.6588 21.1677 45.9145 21.1677C47.5225 21.1677 48.6616 20.5214 49.2422 19.2511L53.7313 21.8362C52.2349 24.5328 49.3092 26.2489 46.0038 26.2489C43.4131 26.2266 41.2691 25.3574 39.5048 23.5968Z"
        fill="#F4F4F4" />
    <path
        d="M75.7313 23.5968C74.0116 21.8585 73.1406 19.7191 73.1406 17.1562C73.1406 14.5933 73.9893 12.4538 75.7313 10.7155C77.4733 8.97723 79.6397 8.13037 82.2304 8.13037C85.5358 8.13037 88.4615 9.86868 89.9578 12.5207L85.4688 15.1059C84.8435 13.8579 83.7491 13.1893 82.1411 13.1893C79.9077 13.1893 78.255 14.8162 78.255 17.1785C78.255 19.5408 79.8854 21.1677 82.1411 21.1677C83.7491 21.1677 84.8881 20.5214 85.4688 19.2511L89.9578 21.8362C88.4615 24.5328 85.5358 26.2489 82.2304 26.2489C79.6397 26.2266 77.4957 25.3574 75.7313 23.5968Z"
        fill="#F4F4F4" />
    <path d="M55.8574 25.7443V0.0615234H61.158V25.7443H55.8574Z" fill="#F4F4F4" />
    <path
        d="M103.176 25.7442L97.8098 18.3579V25.7442H92.4121V0.0410156H97.8098V15.2961L103.144 8.13085H109.805L102.481 16.9691L109.868 25.7442H103.176Z"
        fill="#F4F4F4" />
    <path d="M70.4113 8.13037V25.7437H65.0137V8.13037H70.4113Z" fill="#F4F4F4" />
    <path
        d="M70.7378 3.06617C70.7378 4.73691 69.3834 6.09131 67.7126 6.09131C66.0419 6.09131 64.6875 4.73691 64.6875 3.06617C64.6875 1.39542 66.0419 0.0410156 67.7126 0.0410156C69.3834 0.0410156 70.7378 1.39542 70.7378 3.06617Z"
        fill="#F4F4F4" />
    <path
        d="M114.402 25.744L108.798 19.0317L107.105 16.9768L109.69 13.8315L114.37 8.14648H121.024L113.708 16.9768L121.087 25.744H114.402Z"
        fill="#F4F4F4" />
    <path fill-rule="evenodd" clip-rule="evenodd"
        d="M2.01499 3.06641C1.284 3.06641 0.691406 3.659 0.691406 4.38999V28.5821C0.691406 29.3131 1.284 29.9057 2.01499 29.9057H26.2071C26.9381 29.9057 27.5307 29.3131 27.5307 28.5821V4.38999C27.5307 3.659 26.9381 3.06641 26.2071 3.06641H2.01499ZM8.38528 18.7405L14.4409 25.994H21.6657L13.6911 16.52L21.5976 6.97775H14.4068L9.34955 13.1211L6.55648 16.52L8.38528 18.7405Z"
        fill="#F4F4F4" />
</svg>